<svg width="256px" height="256px" viewBox="0 0 24.00 24.00" fill="none" xmlns="http://www.w3.org/2000/svg" transform="rotate(0)" stroke="#ffffff" stroke-width="0.264"><g id="SVGRepo_bgCarrier" stroke-width="0"></g><g id="SVGRepo_tracerCarrier" stroke-linecap="round" stroke-linejoin="round" stroke="#000000" stroke-width="0.43200000000000005"></g><g id="SVGRepo_iconCarrier"> <path fill-rule="evenodd" clip-rule="evenodd" d="M8.5 8C8.5 7.72386 8.72386 7.5 9 7.5H16.4384C18.0649 7.5 19.2583 9.02847 18.8638 10.6063L17.8638 14.6063C17.5856 15.7193 16.5856 16.5 15.4384 16.5H7C6.72386 16.5 6.5 16.2761 6.5 16C6.5 15.7239 6.72386 15.5 7 15.5H15.4384C16.1267 15.5 16.7267 15.0316 16.8937 14.3638L17.8937 10.3638C18.1303 9.41708 17.4143 8.5 16.4384 8.5H9C8.72386 8.5 8.5 8.27614 8.5 8Z" fill="#ffffff"></path> <path fill-rule="evenodd" clip-rule="evenodd" d="M5.5 12C5.5 11.7239 5.72386 11.5 6 11.5H10C10.2761 11.5 10.5 11.7239 10.5 12C10.5 12.2761 10.2761 12.5 10 12.5H6C5.72386 12.5 5.5 12.2761 5.5 12Z" fill="#ffffff"></path> </g></svg>